<svg width="110" height="110" viewBox="0 0 120 120" xmlns="http://www.w3.org/2000/svg">
  <ellipse cx="60" cy="108" rx="26" ry="5" fill="#000000" opacity="0.18">
    <animate attributeName="rx" values="26;15;26" keyTimes="0;0.5;1" dur="0.7s" repeatCount="indefinite"/>
    <animate attributeName="opacity" values="0.22;0.1;0.22" keyTimes="0;0.5;1" dur="0.7s" repeatCount="indefinite"/>
  </ellipse>

  <g>
    <animateTransform attributeName="transform" type="translate" values="0,0; 0,-20; 0,0" keyTimes="0;0.5;1" dur="0.7s" repeatCount="indefinite"/>

    <ellipse cx="94" cy="66" rx="8" ry="4" fill="#C87F4B" transform="rotate(-25 94 66)">
      <animateTransform attributeName="transform" type="rotate" values="-15 94 66; 15 94 66; -15 94 66" dur="0.35s" repeatCount="indefinite" additive="sum"/>
    </ellipse>

    <ellipse cx="60" cy="75" rx="30" ry="22" fill="#E3A063"/>

    <rect x="40" y="88" width="8" height="16" rx="4" fill="#E3A063"/>
    <rect x="72" y="88" width="8" height="16" rx="4" fill="#E3A063"/>

    <circle cx="60" cy="45" r="22" fill="#E3A063"/>

    <ellipse cx="42" cy="38" rx="7" ry="14" fill="#C87F4B" transform="rotate(-25 42 38)"/>
    <ellipse cx="78" cy="38" rx="7" ry="14" fill="#C87F4B" transform="rotate(25 78 38)"/>

    <ellipse cx="60" cy="52" rx="10" ry="7" fill="#F5D7B0"/>
    <circle cx="60" cy="49" r="2.5" fill="#3A2A1A"/>

    <circle cx="52" cy="41" r="2.5" fill="#2B1B12"/>
    <circle cx="68" cy="41" r="2.5" fill="#2B1B12"/>

    <path d="M56 58 Q60 66 64 58" stroke="#FF8FA3" stroke-width="3" fill="none" stroke-linecap="round"/>
  </g>
</svg>
